<svg xmlns="http://www.w3.org/2000/svg" viewBox="0 0 175.46 175.46"><defs><style>.cls-1,.cls-2,.cls-3{fill:none;}.cls-1{stroke:#f2f2f2;stroke-linejoin:round;}.cls-1,.cls-3{stroke-linecap:round;}.cls-2,.cls-3{stroke:#ccc;stroke-miterlimit:10;}.cls-4{font-size:15.35px;fill:#f2f2f2;font-family:Roboto-Regular, Roboto;}</style></defs><title>contac-imgRecurso 11</title><g id="Capa_2" data-name="Capa 2"><g id="Capa_1-2" data-name="Capa 1"><path class="cls-1" d="M26.35,67.28S27.23,51,51.88,51,73.64,40.18,73.64,37.42c0-11.77-19.34-11.07-19.34-11.07"/><path class="cls-1" d="M26.35,72.25S27.33,54,55,54s24.4-12.09,24.4-15.18c0-13.2-21.69-12.41-21.69-12.41"/><path class="cls-1" d="M26.35,77.83s1.1-20.53,32.1-20.53,27.37-13.56,27.37-17c0-14.81-24.32-13.92-24.32-13.92"/><path class="cls-1" d="M26.35,84.08s1.24-23,36-23S93,45.85,93,42c0-16.61-27.27-15.61-27.27-15.61"/><path class="cls-1" d="M26.35,91.09s1.39-25.82,40.37-25.82,34.42-17,34.42-21.41c0-18.61-30.59-17.5-30.59-17.5"/><path class="cls-1" d="M26.35,99S27.91,70,71.62,70s38.6-19.13,38.6-24c0-20.88-34.3-19.63-34.3-19.63"/><line class="cls-2" x1="72.27" y1="130.54" x2="72.27" y2="119.18"/><path class="cls-2" d="M72.27,115.45V104.26A5.32,5.32,0,0,1,77.59,99h53.67a5.31,5.31,0,0,1,5.31,5.31V134.1a5.32,5.32,0,0,1-5.31,5.32H77.59a5.32,5.32,0,0,1-5.32-5.32h0"/><path class="cls-3" d="M90.61,137s2.07.48,2.07-1.2-.72-1.74-2.07-1.74H68.35"/><path class="cls-3" d="M86,121.51s1.64.38,1.64-1-.57-1.38-1.64-1.38H68.35"/><line class="cls-3" x1="66.04" y1="115.45" x2="82.13" y2="115.45"/><line class="cls-3" x1="66.04" y1="130.54" x2="82.13" y2="130.54"/><path class="cls-2" d="M168.61,34.24A6.34,6.34,0,0,0,175,27.9V19.54a6.35,6.35,0,0,0-6.35-6.35h-6.34V6.85A6.35,6.35,0,0,0,155.92.5h-8.36a6.35,6.35,0,0,0-6.35,6.35v6.34H119.59V6.85A6.34,6.34,0,0,0,113.25.5h-8.36a6.35,6.35,0,0,0-6.35,6.35v6.34H76.92V6.85A6.35,6.35,0,0,0,70.57.5H62.21a6.34,6.34,0,0,0-6.34,6.35v6.34H34.24V6.85A6.34,6.34,0,0,0,27.9.5H19.54a6.35,6.35,0,0,0-6.35,6.35v6.34H6.85A6.35,6.35,0,0,0,.5,19.54V27.9a6.34,6.34,0,0,0,6.35,6.34h6.34V55.87H6.85A6.34,6.34,0,0,0,.5,62.21v8.36a6.35,6.35,0,0,0,6.35,6.35h6.34V98.54H6.85A6.35,6.35,0,0,0,.5,104.89v8.36a6.34,6.34,0,0,0,6.35,6.34h6.34v21.62H6.85A6.35,6.35,0,0,0,.5,147.56v8.36a6.35,6.35,0,0,0,6.35,6.35h6.34v6.34A6.35,6.35,0,0,0,19.54,175H27.9a6.34,6.34,0,0,0,6.34-6.35v-6.34H55.87v6.34A6.34,6.34,0,0,0,62.21,175h8.36a6.35,6.35,0,0,0,6.35-6.35v-6.34H98.54v6.34a6.35,6.35,0,0,0,6.35,6.35h8.36a6.34,6.34,0,0,0,6.34-6.35v-6.34h21.62v6.34a6.35,6.35,0,0,0,6.35,6.35h8.36a6.35,6.35,0,0,0,6.35-6.35v-6.34h6.34a6.35,6.35,0,0,0,6.35-6.35v-8.36a6.35,6.35,0,0,0-6.35-6.35h-6.34V119.59h6.34a6.34,6.34,0,0,0,6.35-6.34v-8.36a6.35,6.35,0,0,0-6.35-6.35h-6.34V76.92h6.34A6.35,6.35,0,0,0,175,70.57V62.21a6.34,6.34,0,0,0-6.35-6.34h-6.34V34.24Z"/><rect class="cls-2" x="26.35" y="26.35" width="122.77" height="122.77" rx="1"/><text class="cls-4" transform="translate(115.77 115.83)">@</text></g></g></svg>