<svg xmlns="http://www.w3.org/2000/svg" viewBox="0 0 371.7 173.09"><defs><style>.cls-1{font-size:36px;fill:#e6e6e6;font-family:Roboto-Bold, Roboto;font-weight:700;}.cls-2,.cls-3{fill:none;stroke-linecap:round;stroke-linejoin:round;}.cls-2{stroke:#f2f2f2;}.cls-3{stroke:#fff;}</style></defs><title>diseñografico-p1Recurso 8</title><g id="Capa_2" data-name="Capa 2"><g id="Capa_1-2" data-name="Capa 1"><text class="cls-1" transform="translate(125.53 121.98)">DISEÑO<tspan x="-23.8" y="39">GRAFICO</tspan></text><path class="cls-2" d="M.5,68.76S2,41.55,43.07,41.55s36.3-18,36.3-22.58C79.37-.66,47.11.51,47.11.51"/><path class="cls-2" d="M.5,77.05S2.15,46.53,48.24,46.53s40.7-20.17,40.7-25.32C88.94-.8,52.77.52,52.77.52"/><path class="cls-2" d="M.5,86.35S2.35,52.12,54,52.12,99.68,29.5,99.68,23.73C99.68-1,59.12.52,59.12.52"/><path class="cls-2" d="M.5,96.77s2.07-38.39,60-38.39S111.72,33,111.72,26.55c0-27.69-45.49-26-45.49-26"/><path class="cls-2" d="M.5,108.46s2.32-43,67.33-43S125.22,37,125.22,29.71c0-31-51-29.19-51-29.19"/><path class="cls-2" d="M.5,121.56S3.1,73.29,76,73.29s64.36-31.89,64.36-40C140.36-1.56,83.16.52,83.16.52"/><path class="cls-2" d="M46.68,172.59s3.59-5.4-4.57-5.54-15.45,5.54-15.45,5.54"/><path class="cls-2" d="M51.7,172.59s5.83-8.78-7.43-9-25.12,9-25.12,9"/><path class="cls-2" d="M58.74,172.59S67.2,159.85,48,159.52s-36.42,13.07-36.42,13.07"/><path class="cls-2" d="M68.94,172.59s12.26-18.47-15.63-19S.5,172.59.5,172.59"/><path class="cls-3" d="M264.27.5S257,7.73,259.08,15.35s14.54,16.27,39.46,6.23S320.35.5,320.35.5"/><path class="cls-3" d="M258.84.5s-8.83,8.78-6.31,18,17.66,19.76,47.93,7.57S327,.5,327,.5"/><path class="cls-3" d="M252.24.5s-10.72,10.67-7.66,21.9,21.45,24,58.21,9.19S335,.5,335,.5"/><path class="cls-3" d="M244.23.5s-13,13-9.3,26.6,26,29.15,70.69,11.17S344.69.5,344.69.5"/><path class="cls-3" d="M234.5.5s-15.82,15.74-11.3,32.31,31.63,35.4,85.86,13.56S356.52.5,356.52.5"/><path class="cls-3" d="M222.68.5S203.47,19.62,209,39.74s38.42,43,104.28,16.47S370.88.5,370.88.5"/></g></g></svg>