<svg xmlns="http://www.w3.org/2000/svg" viewBox="0 0 266.01 79.81"><defs><style>.cls-1{fill:none;stroke:#fff;stroke-miterlimit:10;}.cls-2{font-size:24px;fill:#f2f2f2;font-family:Roboto-Black, Roboto;font-weight:800;}</style></defs><title>diseñografico-p2Recurso 9</title><g id="Capa_2" data-name="Capa 2"><g id="Capa_1-2" data-name="Capa 1"><path class="cls-1" d="M34.83,64.86a14.9,14.9,0,0,1-2.31,7.56,13.84,13.84,0,0,1-5.93,5.09,20.18,20.18,0,0,1-8.71,1.8Q9.8,79.31,5.15,74T.5,59.17v-2A24.8,24.8,0,0,1,2.6,46.6a15.86,15.86,0,0,1,6-7,16.89,16.89,0,0,1,9.13-2.46q7.45,0,12,3.93a15.53,15.53,0,0,1,5.16,10.83H25.06c-.08-2.5-.7-4.29-1.89-5.38s-3-1.64-5.4-1.64a5.89,5.89,0,0,0-5.41,2.76q-1.72,2.76-1.81,8.82v2.9c0,4.38.55,7.5,1.65,9.38s3,2.81,5.68,2.81A7.59,7.59,0,0,0,23.09,70q1.8-1.6,1.91-5.1Z"/><path class="cls-1" d="M54.75,64.24H49.39V78.75H39.51v-41H55.65q7.29,0,11.4,3.23a11,11,0,0,1,4.12,9.15,13.28,13.28,0,0,1-1.74,7.09A12.35,12.35,0,0,1,64,61.77l8.56,16.55v.43H62Zm-5.36-7.6h6.26a5.66,5.66,0,0,0,4.24-1.48A5.78,5.78,0,0,0,61.31,51a5.81,5.81,0,0,0-1.44-4.17,5.58,5.58,0,0,0-4.22-1.51H49.39Z"/><path class="cls-1" d="M102.57,61.34H87v9.8h18.37v7.61H77.14v-41h28.3v7.63H87V54h15.55Z"/><path class="cls-1" d="M132.71,71.09H119.16l-2.37,7.66H106.23l15-41h9.3l15.15,41H135.1Zm-11.19-7.64h8.82l-4.42-14.22Z"/><path class="cls-1" d="M177.52,45.37H165.21V78.75h-9.89V45.37H143.24V37.74h34.28Z"/><path class="cls-1" d="M192.22,78.75h-9.86v-41h9.86Z"/><path class="cls-1" d="M215,67.59l8.16-29.85h11l-13.8,41H209.6l-13.69-41h11Z"/><path class="cls-1" d="M262.63,61.34H247.08v9.8h18.37v7.61H237.2v-41h28.31v7.63H247.08V54h15.55Z"/><text class="cls-2" transform="translate(0.5 20.53)">minimal.</text></g></g></svg>