<svg xmlns="http://www.w3.org/2000/svg" viewBox="0 0 883.89 245.2"><defs><style>.cls-1{fill:#fff;}.cls-2,.cls-3{fill:#e6e6e6;}.cls-3,.cls-4{stroke:#fff;stroke-miterlimit:10;stroke-width:3px;}.cls-3{stroke-linecap:round;}.cls-4{fill:none;}</style></defs><title>img-dmRecurso 10</title><g id="Capa_2" data-name="Capa 2"><g id="Capa_1-2" data-name="Capa 1"><path class="cls-1" d="M183.67,139.09a.88.88,0,0,1,.52-.33,12.56,12.56,0,0,0,2.6-1.15.57.57,0,0,1,.64,0l1.43.82c1.06.62,2.13,1.22,3.18,1.85a.82.82,0,0,0,.9,0l12.74-7.19,5.71-3.22a1.37,1.37,0,0,0,.2-.13.59.59,0,0,0,.26-.46V108.21a.74.74,0,0,0-.41-.7l-16.37-9.22-2.19-1.24a.73.73,0,0,0-.79,0l-16.84,9.5-1.7,1a.76.76,0,0,0-.42.73v20.87a1.11,1.11,0,0,0,0,.26.67.67,0,0,0,.34.43c.87.48,1.73,1,2.59,1.46s1.57.9,2.37,1.33a4.4,4.4,0,0,0,2,.6,2.5,2.5,0,0,0,2.3-1.09,2.16,2.16,0,0,0,.39-1.23c0-1.25,0-2.49,0-3.74V109.92a.49.49,0,0,1,.52-.52h.06c.75,0,1.5,0,2.25,0a.57.57,0,0,1,.6.6c0,.93,0,1.85,0,2.78V131a6.7,6.7,0,0,1-.44,2.43,4.5,4.5,0,0,1-2,2.37,5.83,5.83,0,0,1-1.62.59,8,8,0,0,1-5.3-.78c-1.22-.63-2.4-1.31-3.6-2-.61-.34-1.22-.67-1.82-1a3.79,3.79,0,0,1-1.91-2.75,4.53,4.53,0,0,1,0-.74V108.22A3.93,3.93,0,0,1,170,107a3.83,3.83,0,0,1,1.79-2.18L185,97.33l5.42-3.07a4.32,4.32,0,0,1,2-.57,3.89,3.89,0,0,1,2,.47l3.71,2.09q7.53,4.25,15,8.5a3.83,3.83,0,0,1,1.93,2.57,4.63,4.63,0,0,1,.08,1v13.78c0,2.39,0,4.78,0,7.17a3.77,3.77,0,0,1-.64,2.11,4,4,0,0,1-1.37,1.27l-7.44,4.19-11.08,6.26a4.45,4.45,0,0,1-1.66.58,4.08,4.08,0,0,1-2.55-.52l-6-3.47a5.14,5.14,0,0,1-.49-.32A3.32,3.32,0,0,1,183.67,139.09Z"/><path class="cls-1" d="M197.56,108.84a19,19,0,0,1,3,.2,10.28,10.28,0,0,1,3.38,1.12,5.5,5.5,0,0,1,2.48,3,6.51,6.51,0,0,1,.44,2.18.48.48,0,0,1-.43.49H204a.54.54,0,0,1-.58-.44c0-.15-.07-.3-.11-.45a4.31,4.31,0,0,0-.64-1.31,3.28,3.28,0,0,0-1.78-1.18,8.59,8.59,0,0,0-2.35-.36c-.55,0-1.1,0-1.65,0a8.86,8.86,0,0,0-2.11.28,4,4,0,0,0-1.17.52,1.92,1.92,0,0,0-.86,1.37,2.1,2.1,0,0,0,0,.9,1.07,1.07,0,0,0,.45.68,3.87,3.87,0,0,0,.64.33,10,10,0,0,0,1.87.47c.9.16,1.8.29,2.7.42,1.2.17,2.41.31,3.61.56a15.54,15.54,0,0,1,2.66.77,5.33,5.33,0,0,1,1.27.72,3.87,3.87,0,0,1,1.5,2.28,6.18,6.18,0,0,1-.25,3.73,5.13,5.13,0,0,1-1.77,2.22,8.11,8.11,0,0,1-2.69,1.27,14.22,14.22,0,0,1-2.51.46,21.51,21.51,0,0,1-3.11.06,15.59,15.59,0,0,1-3.84-.59,8,8,0,0,1-2.67-1.31,5.42,5.42,0,0,1-2.05-3.15,6.1,6.1,0,0,1-.18-1.65.48.48,0,0,1,.53-.52c.79,0,1.57,0,2.35,0a.52.52,0,0,1,.59.5c.06.27.11.54.18.8a3.08,3.08,0,0,0,1.93,2.17,7.76,7.76,0,0,0,2,.49,24.81,24.81,0,0,0,2.59.11,14,14,0,0,0,2.89-.28,4.57,4.57,0,0,0,1.51-.63,2.16,2.16,0,0,0,1-1.61,3.39,3.39,0,0,0,0-.78,1.34,1.34,0,0,0-.54-.93,3.42,3.42,0,0,0-1.12-.54,18.23,18.23,0,0,0-2.92-.6l-2.8-.32a20,20,0,0,1-3.74-.73,6.86,6.86,0,0,1-1.95-.93,4.06,4.06,0,0,1-1.69-2.54,5.81,5.81,0,0,1,.06-2.84,5,5,0,0,1,2.15-2.87,8.52,8.52,0,0,1,2.71-1.13,12.87,12.87,0,0,1,2.77-.33Z"/><path class="cls-1" d="M0,93.69v50H50v-50Zm27.12,39c0,4.86-2.85,7.09-7,7.09a7.28,7.28,0,0,1-7-4.3l3.82-2.31c.73,1.3,1.4,2.41,3,2.41s2.51-.6,2.51-3v-16h4.69v16Zm11.17,7.05c-4.36,0-7.19-2.07-8.56-4.8l3.83-2.21a5.12,5.12,0,0,0,4.63,2.86c1.94,0,3.19-1,3.19-2.32,0-1.61-1.27-2.18-3.42-3.13l-1.18-.5c-3.39-1.44-5.63-3.26-5.63-7.09,0-3.52,2.69-6.2,6.87-6.2a6.93,6.93,0,0,1,6.68,3.76L41,122.48a3.21,3.21,0,0,0-3-2,2,2,0,0,0-2.24,2c0,1.41.87,2,2.89,2.86l1.17.5c4,1.71,6.24,3.46,6.24,7.39,0,4.22-3.33,6.54-7.78,6.54Z"/><path class="cls-1" d="M673.54,93.69l3.89,44.17L695,143.69l17.53-5.83,3.9-44.17Zm34.89,9L707.9,108l-12.77,5.46h12.33L706,129.76,695.1,133l-11-3.25-.72-8.22h5.38l.35,4.21,5.78,1.46,6-1.69.41-6.77L683,118.63v0h0l-.4-5.14,12.43-5.18.72-.3H682.14l-.64-5.24Z"/><path class="cls-1" d="M841,93.69l3.9,44.17,17.47,5.83L880,137.86l3.9-44.17ZM875.43,108H854.94l.45,5.47h19.44l-1.51,16.43-10.84,3v.23h-.12l-11-3.05-.67-8.45h5.38l.39,4.24,5.94,1.61,6-1.61.67-6.92h-18.6L849,102.62h26.91Z"/><path class="cls-1" d="M381.63,101.44a5.8,5.8,0,0,0-2.81-3.84,30.15,30.15,0,0,0-3.2-1.52A43.54,43.54,0,0,0,360.7,93.7a53.75,53.75,0,0,0-9.9.68,28.52,28.52,0,0,0-9.61,3.19,5.64,5.64,0,0,0-2.68,3.34,28.61,28.61,0,0,0-1.24,8.42A34.57,34.57,0,0,0,340,124.75c4,8.75,10.82,14.77,19.45,18.82a1.26,1.26,0,0,0,1.15,0A39.34,39.34,0,0,0,378.83,127c2.93-5.16,3.86-10.85,3.88-18.19A27.69,27.69,0,0,0,381.63,101.44ZM376.82,123a29.11,29.11,0,0,1-6.72,9.64,37,37,0,0,1-9.52,6.95,1.08,1.08,0,0,1-1.11.06,35.72,35.72,0,0,1-15.64-15.15,29.21,29.21,0,0,1-2.89-11.1,33,33,0,0,1,.34-8.77c.08-.48.21-1,.28-1.44a3.86,3.86,0,0,1,2.52-3.1,30.13,30.13,0,0,1,8.28-2.28,51.61,51.61,0,0,1,7.66-.5A43.72,43.72,0,0,1,373.13,99c.6.19,1.18.47,1.78.64,2.33.67,3.4,2.25,3.76,4.59A35.21,35.21,0,0,1,376.82,123Z"/><path class="cls-1" d="M368.13,117c.06-3.43-1.37-6.85-3-9.79a21.85,21.85,0,0,0-2.79-3.57c-.47-.54-.95-1.07-1.38-1.65a18.91,18.91,0,0,0-1.06-1.76s-.44,1-.54,1.1a11.66,11.66,0,0,1-1.31,1.32,14,14,0,0,0-1.68,1.86c-.5.69-1,1.34-1.49,2.06-.26.4-.42.88-.66,1.3-.06.11-.61,1.18-.57,1.18-.35,0-.95,2.74-1.07,3.1a15.73,15.73,0,0,0-.7,4.31,18.35,18.35,0,0,0,1.24,7.73,20.16,20.16,0,0,0,4.47,6.33,14.31,14.31,0,0,0,1.28,1.18,1.83,1.83,0,0,1,.76,1.36,8.83,8.83,0,0,1,.22,1.92c0,.78,0,1.62,1,1.55,0-1.38-.31-3.23.37-4.48.37-.69,1.31-1.1,1.88-1.65a14,14,0,0,0,1.87-2.26,24,24,0,0,0,1.56-2.52,21.36,21.36,0,0,0,1-2.87,11.65,11.65,0,0,0,.56-2.62A7.51,7.51,0,0,0,368.13,117Z"/><path class="cls-2" d="M718.6,7a7.34,7.34,0,0,1-8.53,1.25,16.45,16.45,0,0,1-3.86-3.31,14.18,14.18,0,0,0-4.56-3.46c-2.5-1.42-5.23-1.54-8-1.41A11.44,11.44,0,0,0,682.7,9.39c.54,0,.73-.51,1-.82,3-3.15,7.58-3.42,10.66-.52.65.62,1.33,1.22,2,1.82,4.17,5.06,10.08,6.28,16.12,4.56,3.83-1.08,7.41-5.41,7.47-8.76Z"/><path class="cls-2" d="M706.2,21.89a7.3,7.3,0,0,1-10,.72c-1.28-.94-2.18-2.26-3.45-3.2-4.4-5-12.21-5.24-16.86-2.87-3.26,1.67-5,4.55-6,8.11a1.66,1.66,0,0,0,.92-.66c3.53-3.68,7.79-3.74,11.47-.18a28.3,28.3,0,0,0,4.93,4.34,14.33,14.33,0,0,0,14.86.39c2.81-1.48,5.35-5.54,5-7.88A14.4,14.4,0,0,1,706.2,21.89Z"/><path class="cls-1" d="M545.58,109.05c-.6-.21-1.2-.4-1.81-.57.1-.41.2-.82.28-1.24,1.37-6.64.48-12-2.58-13.76s-7.73.07-12.57,4.28c-.48.42-.94.85-1.4,1.29-.3-.29-.61-.58-.93-.86-5.07-4.51-10.16-6.41-13.22-4.64s-3.79,6.73-2.56,13q.18.94.42,1.86c-.72.21-1.42.42-2.08.66-5.95,2.07-9.75,5.32-9.75,8.69s4.08,7,10.27,9.1c.51.17,1,.33,1.52.47-.16.67-.31,1.34-.44,2-1.17,6.19-.26,11.11,2.66,12.79s8.09,0,13-4.36q.58-.51,1.17-1.08c.49.48,1,.94,1.52,1.39,4.77,4.11,9.49,5.77,12.41,4.08s4-7,2.72-13.45c-.09-.49-.21-1-.33-1.5l1-.33c6.44-2.14,10.63-5.59,10.63-9.12S551.65,111.14,545.58,109.05Zm-15.1-9.47c4.15-3.62,8-5,9.79-4s2.61,5.46,1.43,11.2c-.08.37-.16.75-.25,1.12a57.18,57.18,0,0,0-7.52-1.19,55.23,55.23,0,0,0-4.75-5.93C529.61,100.35,530,100,530.48,99.58ZM516,120.67q.76,1.48,1.59,2.91c.57,1,1.16,1.94,1.77,2.89-1.84-.21-3.58-.49-5.18-.83C514.64,124,515.26,122.37,516,120.67Zm0-5.64c-.7-1.66-1.3-3.29-1.79-4.86,1.61-.36,3.31-.66,5.1-.88-.6.93-1.17,1.88-1.73,2.83S516.47,114.05,516,115Zm1.27,2.82q1.11-2.31,2.39-4.53h0q1.29-2.22,2.73-4.34c1.67-.12,3.38-.19,5.12-.19s3.45.07,5.12.2c1,1.4,1.86,2.85,2.71,4.32s1.66,3,2.42,4.51q-1.12,2.31-2.41,4.55h0q-1.27,2.22-2.7,4.35c-1.67.12-3.39.18-5.14.18s-3.45-.06-5.09-.16q-1.46-2.13-2.75-4.36C518.78,120.9,518,119.39,517.24,117.85Zm20.16,5.72c.56-1,1.11-2,1.63-3a50.64,50.64,0,0,1,1.88,4.94,52.74,52.74,0,0,1-5.24.9C536.27,125.48,536.84,124.53,537.4,123.57ZM539,115c-.51-1-1-2-1.61-2.92s-1.12-1.89-1.71-2.81a50.41,50.41,0,0,1,5.12.89A47.63,47.63,0,0,1,539,115Zm-11.5-12.55a51.19,51.19,0,0,1,3.31,4c-2.21-.1-4.43-.11-6.64,0C525.26,105,526.38,103.69,527.5,102.48Zm-12.94-6.85c1.88-1.09,6,.46,10.42,4.35l.84.78a57,57,0,0,0-4.79,5.93,57.51,57.51,0,0,0-7.5,1.16c-.14-.57-.27-1.15-.38-1.73C512.09,100.72,512.79,96.65,514.56,95.63Zm-2.74,29.42c-.47-.13-.93-.28-1.39-.43a20.5,20.5,0,0,1-6.56-3.49c-1.39-1.19-2.09-2.37-2.09-3.34,0-2,3.05-4.65,8.14-6.43.64-.22,1.28-.42,1.93-.6a58,58,0,0,0,2.74,7.09A58.69,58.69,0,0,0,511.82,125.05Zm13,10.94a20.32,20.32,0,0,1-6.29,3.94h0c-1.73.61-3.11.63-3.95.15-1.77-1-2.51-5-1.5-10.26.12-.63.26-1.25.41-1.87a56.14,56.14,0,0,0,7.57,1.1,59,59,0,0,0,4.83,6C525.55,135.35,525.19,135.67,524.83,136Zm2.74-2.71c-1.14-1.23-2.27-2.59-3.38-4.05,1.07.05,2.17.07,3.29.07s2.27,0,3.39-.08A51.65,51.65,0,0,1,527.57,133.28Zm14.58,3.34c-.34,1.81-1,3-1.84,3.49-1.77,1-5.56-.31-9.65-3.82-.46-.41-.94-.84-1.41-1.29a56.66,56.66,0,0,0,4.71-6,55.26,55.26,0,0,0,7.61-1.18c.12.47.22.92.31,1.36A20.45,20.45,0,0,1,542.15,136.62Zm2-12h0l-1,.3a56,56,0,0,0-2.84-7.12,56.37,56.37,0,0,0,2.73-7c.58.17,1.13.34,1.67.53,5.2,1.79,8.37,4.43,8.37,6.47S549.75,122.79,544.19,124.63Z"/><path class="cls-1" d="M532.49,117.84a5,5,0,1,1-5-5A5,5,0,0,1,532.49,117.84Z"/><path class="cls-2" d="M155.48,25.65V17.3H165.9v-.49H155.48V9.2h11.08V8.71H155V26.13h11.67v-.48Zm20.57-12.06-4.32,5.69-4.22-5.69h-.63l4.56,6.05-5,6.49H167L171.73,20l4.74,6.12h.61l-5-6.49,4.59-6.05Zm2.49,16.84V22.62h.05a4.89,4.89,0,0,0,5,3.78,4.83,4.83,0,0,0,2.29-.52,4.94,4.94,0,0,0,1.68-1.43,6.62,6.62,0,0,0,1-2.1,8.66,8.66,0,0,0,.36-2.51,8.94,8.94,0,0,0-.37-2.61,6.48,6.48,0,0,0-1.06-2.08,4.79,4.79,0,0,0-3.92-1.85,5.38,5.38,0,0,0-1.77.28,4.63,4.63,0,0,0-1.45.79,5.07,5.07,0,0,0-1.1,1.21,5.72,5.72,0,0,0-.71,1.52h-.05V13.59h-.48V30.43Zm5.08-4.49a4.69,4.69,0,0,1-3.69-1.58,6.64,6.64,0,0,1-1.39-4.52,7.66,7.66,0,0,1,.35-2.32,5.86,5.86,0,0,1,1-1.93,5,5,0,0,1,1.6-1.32,4.73,4.73,0,0,1,2.15-.49,4.56,4.56,0,0,1,2.14.49,4.39,4.39,0,0,1,1.51,1.33,6.12,6.12,0,0,1,.9,1.93,8.21,8.21,0,0,1,.31,2.31A9,9,0,0,1,188.2,22a6.18,6.18,0,0,1-.87,1.95,4.74,4.74,0,0,1-1.5,1.42,4.19,4.19,0,0,1-2.21.55Zm8,.19V19a7.11,7.11,0,0,1,.29-2,5,5,0,0,1,.91-1.72,4.06,4.06,0,0,1,1.55-1.17,4.72,4.72,0,0,1,2.23-.36V13.3a6,6,0,0,0-2,.24,4.81,4.81,0,0,0-1.45.73,3.72,3.72,0,0,0-1,1.09,4.54,4.54,0,0,0-.54,1.33h0v-3.1h-.49V26.13ZM197.24,20h10.49a8.57,8.57,0,0,0-.25-2.49,6.16,6.16,0,0,0-1-2.12,4.91,4.91,0,0,0-1.73-1.49,5.28,5.28,0,0,0-2.53-.56,5,5,0,0,0-2.05.44A5.11,5.11,0,0,0,198.43,15a6.61,6.61,0,0,0-1.22,2.06,8,8,0,0,0-.46,2.78,10.23,10.23,0,0,0,.32,2.6,6,6,0,0,0,1,2.1,4.51,4.51,0,0,0,1.7,1.38,5.64,5.64,0,0,0,2.5.46,5.45,5.45,0,0,0,3.61-1.21,5,5,0,0,0,1.74-3.4h-.49a4.68,4.68,0,0,1-1.62,3.11,5.14,5.14,0,0,1-3.29,1,5,5,0,0,1-2.27-.47,4.12,4.12,0,0,1-1.51-1.26,5.62,5.62,0,0,1-.87-1.9,10.78,10.78,0,0,1-.3-2.35Zm10-.49h-10a7.5,7.5,0,0,1,.49-2.37,5.9,5.9,0,0,1,1.08-1.79,4.5,4.5,0,0,1,1.57-1.14,4.69,4.69,0,0,1,1.91-.39,4.76,4.76,0,0,1,2.15.46A4.45,4.45,0,0,1,206,15.47a5.42,5.42,0,0,1,.94,1.82,7.46,7.46,0,0,1,.32,2.18Zm10.61-2.17h.49a3.63,3.63,0,0,0-1.22-3.05,5.22,5.22,0,0,0-3.32-.95,5.75,5.75,0,0,0-2,.29,3.87,3.87,0,0,0-1.31.76,2.64,2.64,0,0,0-.74,1,3.05,3.05,0,0,0-.22,1.07,3.21,3.21,0,0,0,.37,1.64,2.39,2.39,0,0,0,1.15,1,9,9,0,0,0,1.22.44c.45.13,1,.27,1.58.42l1.59.39a5.74,5.74,0,0,1,1.38.52,3.08,3.08,0,0,1,1,.84A2.23,2.23,0,0,1,218.2,23a2.39,2.39,0,0,1-.37,1.36,3,3,0,0,1-1,.92,4.52,4.52,0,0,1-1.3.51,6.29,6.29,0,0,1-1.41.16,5.16,5.16,0,0,1-3.4-1,3.83,3.83,0,0,1-1.19-3.11h-.48a4.29,4.29,0,0,0,1.28,3.46,5.64,5.64,0,0,0,3.79,1.1,7.61,7.61,0,0,0,1.63-.18,4.41,4.41,0,0,0,1.46-.6,3.25,3.25,0,0,0,1-1.07,3,3,0,0,0,.4-1.61,2.78,2.78,0,0,0-.35-1.47,3.17,3.17,0,0,0-.93-.93,5,5,0,0,0-1.29-.57l-1.46-.4-1.79-.47a10.9,10.9,0,0,1-1.43-.46,2.38,2.38,0,0,1-1-.77,2.34,2.34,0,0,1-.38-1.43,3.14,3.14,0,0,1,.1-.61,2.17,2.17,0,0,1,.46-.89,3.09,3.09,0,0,1,1.13-.8,4.87,4.87,0,0,1,2.07-.36,6.54,6.54,0,0,1,1.65.2,3.55,3.55,0,0,1,1.28.62,2.91,2.91,0,0,1,.83,1.09,4,4,0,0,1,.29,1.61Zm11.3,0h.49a3.63,3.63,0,0,0-1.22-3.05,5.22,5.22,0,0,0-3.32-.95,5.75,5.75,0,0,0-2,.29,3.87,3.87,0,0,0-1.31.76,2.64,2.64,0,0,0-.74,1,3.05,3.05,0,0,0-.22,1.07,3.21,3.21,0,0,0,.37,1.64,2.39,2.39,0,0,0,1.15,1,9,9,0,0,0,1.22.44c.45.13,1,.27,1.58.42l1.59.39a5.74,5.74,0,0,1,1.38.52,3.08,3.08,0,0,1,1,.84A2.23,2.23,0,0,1,229.5,23a2.39,2.39,0,0,1-.37,1.36,3,3,0,0,1-1,.92,4.52,4.52,0,0,1-1.3.51,6.29,6.29,0,0,1-1.41.16,5.16,5.16,0,0,1-3.4-1,3.83,3.83,0,0,1-1.19-3.11h-.48a4.29,4.29,0,0,0,1.28,3.46,5.64,5.64,0,0,0,3.79,1.1,7.61,7.61,0,0,0,1.63-.18,4.41,4.41,0,0,0,1.46-.6,3.25,3.25,0,0,0,1.05-1.07,3,3,0,0,0,.4-1.61,2.78,2.78,0,0,0-.35-1.47,3.17,3.17,0,0,0-.93-.93,5,5,0,0,0-1.29-.57l-1.46-.4-1.79-.47a10.9,10.9,0,0,1-1.43-.46,2.38,2.38,0,0,1-1-.77,2.34,2.34,0,0,1-.38-1.43,3.14,3.14,0,0,1,.1-.61,2.17,2.17,0,0,1,.46-.89,3.09,3.09,0,0,1,1.13-.8,4.87,4.87,0,0,1,2.07-.36,6.54,6.54,0,0,1,1.65.2,3.55,3.55,0,0,1,1.28.62,2.91,2.91,0,0,1,.83,1.09,4,4,0,0,1,.29,1.61Z"/><path class="cls-2" d="M324.05,205.37l0,1.08A3.57,3.57,0,0,1,327,205.2a2.79,2.79,0,0,1,2.77,1.55,3.65,3.65,0,0,1,1.25-1.12,3.71,3.71,0,0,1,1.84-.43q3.18,0,3.24,3.37v6.5h-1.66v-6.4a2.24,2.24,0,0,0-.47-1.55,2.08,2.08,0,0,0-1.6-.52,2.15,2.15,0,0,0-2.24,2v6.43h-1.66v-6.35a1.85,1.85,0,0,0-2.07-2.12,2.21,2.21,0,0,0-2.23,1.39v7.08h-1.66v-9.7Z"/><path class="cls-2" d="M336.68,210.13a5.76,5.76,0,0,1,.56-2.56,4.18,4.18,0,0,1,1.56-1.76,4.23,4.23,0,0,1,2.28-.61,4.07,4.07,0,0,1,3.2,1.37,5.27,5.27,0,0,1,1.22,3.64v.12a5.81,5.81,0,0,1-.54,2.54,4.12,4.12,0,0,1-1.55,1.75,4.27,4.27,0,0,1-2.32.63,4.09,4.09,0,0,1-3.19-1.37,5.29,5.29,0,0,1-1.22-3.63Zm1.67.2a4.15,4.15,0,0,0,.74,2.59,2.4,2.4,0,0,0,2,1,2.37,2.37,0,0,0,2-1,4.49,4.49,0,0,0,.74-2.77,4.16,4.16,0,0,0-.75-2.58,2.42,2.42,0,0,0-2-1,2.37,2.37,0,0,0-2,1A4.53,4.53,0,0,0,338.35,210.33Z"/><path class="cls-2" d="M347.7,205.37l.05,1.22a3.53,3.53,0,0,1,2.9-1.39q3.08,0,3.1,3.46v6.41H352.1v-6.42a2.28,2.28,0,0,0-.48-1.55,2,2,0,0,0-1.47-.5,2.4,2.4,0,0,0-1.41.43,2.83,2.83,0,0,0-.95,1.13v6.91h-1.66v-9.7Z"/><path class="cls-2" d="M354.41,210.14a5.72,5.72,0,0,1,1-3.61,3.62,3.62,0,0,1,5.54-.08l.08-1.08h1.52v9.46a4,4,0,0,1-1.12,3,4.12,4.12,0,0,1-3,1.08,5,5,0,0,1-2.05-.45,3.43,3.43,0,0,1-1.53-1.22l.86-1a3.24,3.24,0,0,0,2.61,1.32,2.55,2.55,0,0,0,1.88-.68,2.62,2.62,0,0,0,.68-1.92v-.83a3.42,3.42,0,0,1-2.71,1.15,3.32,3.32,0,0,1-2.76-1.37A6,6,0,0,1,354.41,210.14Zm1.66.19a4.31,4.31,0,0,0,.68,2.57,2.16,2.16,0,0,0,1.88.94,2.44,2.44,0,0,0,2.3-1.42V208a2.45,2.45,0,0,0-2.28-1.39,2.21,2.21,0,0,0-1.89.94A4.71,4.71,0,0,0,356.07,210.33Z"/><path class="cls-2" d="M363.21,210.13a5.63,5.63,0,0,1,.56-2.56,4.23,4.23,0,0,1,1.55-1.76,4.28,4.28,0,0,1,2.28-.61,4.09,4.09,0,0,1,3.21,1.37,5.27,5.27,0,0,1,1.22,3.64v.12a5.81,5.81,0,0,1-.54,2.54,4.12,4.12,0,0,1-1.55,1.75,4.29,4.29,0,0,1-2.32.63,4.08,4.08,0,0,1-3.19-1.37,5.25,5.25,0,0,1-1.22-3.63Zm1.66.2a4.15,4.15,0,0,0,.75,2.59,2.54,2.54,0,0,0,4,0,4.56,4.56,0,0,0,.74-2.77,4.1,4.1,0,0,0-.76-2.58,2.52,2.52,0,0,0-4,0A4.53,4.53,0,0,0,364.87,210.33Z"/><path class="cls-2" d="M372.22,210.13a5.76,5.76,0,0,1,.56-2.56,4.18,4.18,0,0,1,1.56-1.76,4.23,4.23,0,0,1,2.28-.61,4.07,4.07,0,0,1,3.2,1.37,5.27,5.27,0,0,1,1.22,3.64v.12a5.81,5.81,0,0,1-.54,2.54,4.12,4.12,0,0,1-1.55,1.75,4.27,4.27,0,0,1-2.32.63,4.09,4.09,0,0,1-3.19-1.37,5.29,5.29,0,0,1-1.22-3.63Zm1.66.2a4.15,4.15,0,0,0,.75,2.59,2.54,2.54,0,0,0,4,0,4.49,4.49,0,0,0,.74-2.77,4.16,4.16,0,0,0-.75-2.58,2.42,2.42,0,0,0-2-1,2.37,2.37,0,0,0-2,1A4.53,4.53,0,0,0,373.88,210.33Z"/><path class="cls-2" d="M387.31,212.5a1.25,1.25,0,0,0-.5-1.05,4.9,4.9,0,0,0-1.77-.64,8.56,8.56,0,0,1-2-.64,2.85,2.85,0,0,1-1.09-.9,2.19,2.19,0,0,1-.35-1.23,2.49,2.49,0,0,1,1-2,3.92,3.92,0,0,1,2.57-.82,4,4,0,0,1,2.67.85,2.67,2.67,0,0,1,1,2.17h-1.67a1.5,1.5,0,0,0-.57-1.17,2.17,2.17,0,0,0-1.46-.49,2.27,2.27,0,0,0-1.41.39,1.24,1.24,0,0,0-.51,1,1,1,0,0,0,.47.91,6.15,6.15,0,0,0,1.72.58,8.75,8.75,0,0,1,2,.66,3,3,0,0,1,1.14.93,2.25,2.25,0,0,1,.37,1.32,2.48,2.48,0,0,1-1,2.08,4.37,4.37,0,0,1-2.7.79,4.83,4.83,0,0,1-2.06-.42,3.31,3.31,0,0,1-1.4-1.15,2.8,2.8,0,0,1-.5-1.6h1.65a1.72,1.72,0,0,0,.67,1.32,2.56,2.56,0,0,0,1.64.49,2.62,2.62,0,0,0,1.51-.38A1.16,1.16,0,0,0,387.31,212.5Z"/><path class="cls-2" d="M393.7,215.25a4.27,4.27,0,0,1-3.21-1.3,4.82,4.82,0,0,1-1.23-3.46v-.31a5.77,5.77,0,0,1,.55-2.57,4.23,4.23,0,0,1,1.54-1.77,3.83,3.83,0,0,1,2.14-.64,3.63,3.63,0,0,1,2.94,1.24,5.39,5.39,0,0,1,1.05,3.57v.69h-6.56a3.44,3.44,0,0,0,.83,2.31,2.64,2.64,0,0,0,2,.88,2.88,2.88,0,0,0,1.49-.36,3.63,3.63,0,0,0,1.06-.94l1,.78A4.09,4.09,0,0,1,393.7,215.25Zm-.21-8.69a2.2,2.2,0,0,0-1.68.73,3.57,3.57,0,0,0-.84,2h4.85v-.12a3.09,3.09,0,0,0-.68-2A2.07,2.07,0,0,0,393.49,206.56Z"/><path class="cls-2" d="M696.94,222.89h-5.39v-5.66h5a7.59,7.59,0,0,1,1.37.12,3.14,3.14,0,0,1,1.17.42,2.17,2.17,0,0,1,.82.85,2.82,2.82,0,0,1,.3,1.38,2.55,2.55,0,0,1-.91,2.21A3.81,3.81,0,0,1,696.94,222.89Z"/><path class="cls-2" d="M700.14,227.32a3.16,3.16,0,0,1,1,2.66,3.28,3.28,0,0,1-.32,1.56,2.53,2.53,0,0,1-.86,1,3.37,3.37,0,0,1-1.26.5,6.54,6.54,0,0,1-1.49.16h-5.7v-6.65h5.8A4.55,4.55,0,0,1,700.14,227.32Z"/><path class="cls-2" d="M709.81,205.2H680.12a5.15,5.15,0,0,0-5.15,5.16V240a5.15,5.15,0,0,0,5.15,5.16h29.69A5.16,5.16,0,0,0,715,240V210.36A5.16,5.16,0,0,0,709.81,205.2Zm-4,28.26a6.13,6.13,0,0,1-1.92,2.18,8.38,8.38,0,0,1-2.74,1.26,12.55,12.55,0,0,1-3.18.41H686.22V213.08h11.4a14.63,14.63,0,0,1,3.16.32,6.64,6.64,0,0,1,2.44,1,4.71,4.71,0,0,1,1.58,1.84,6.55,6.55,0,0,1,.56,2.85,5.35,5.35,0,0,1-.83,3.06,6,6,0,0,1-2.47,2,5.76,5.76,0,0,1,3.35,2.25,7.43,7.43,0,0,1,.39,7.06Z"/><line class="cls-3" x1="66.05" y1="120.67" x2="151.44" y2="120.67"/><line class="cls-3" x1="401.04" y1="120.67" x2="486.42" y2="120.67"/><line class="cls-3" x1="568.53" y1="120.67" x2="653.91" y2="120.67"/><line class="cls-3" x1="736.02" y1="120.67" x2="821.41" y2="120.67"/><line class="cls-3" x1="192.49" y1="37.67" x2="192.49" y2="82.67"/><line class="cls-3" x1="694.97" y1="37.67" x2="694.97" y2="82.67"/><line class="cls-3" x1="694.97" y1="150.9" x2="694.97" y2="195.9"/><line class="cls-3" x1="359.98" y1="150.9" x2="359.98" y2="195.9"/><path class="cls-4" d="M242.94,19.86h0a33.3,33.3,0,0,1,33.3,33.29V177.79A32.24,32.24,0,0,0,308.48,210h0"/></g></g></svg>