<svg xmlns="http://www.w3.org/2000/svg" viewBox="0 0 251 251"><defs><style>.cls-1{font-size:36px;fill:#e6e6e6;font-family:Roboto-Bold, Roboto;font-weight:700;}.cls-2,.cls-3,.cls-4,.cls-6{fill:none;}.cls-2,.cls-6{stroke:#f2f2f2;}.cls-2,.cls-3{stroke-linecap:round;stroke-linejoin:round;}.cls-3,.cls-4{stroke:#fff;}.cls-4,.cls-6{stroke-miterlimit:10;}.cls-5{font-size:20.05px;fill:#f2f2f2;font-family:Roboto-Black, Roboto;font-weight:800;}</style></defs><title>web-p2Recurso 15</title><g id="Capa_2" data-name="Capa 2"><g id="Capa_1-2" data-name="Capa 1"><text class="cls-1" transform="translate(14.8 123.49)">DISEÑO<tspan x="0" y="39">GRAFICO</tspan></text><path class="cls-2" d="M.5,64S1.87,38.7,40.13,38.7,73.9,22,73.9,17.69c0-18.27-30-17.18-30-17.18"/><path class="cls-2" d="M.5,71.75S2,43.34,44.94,43.34,82.82,24.57,82.82,19.78C82.82-.71,49.15.51,49.15.51"/><path class="cls-2" d="M.5,80.4S2.22,48.54,50.33,48.54s42.48-21,42.48-26.42c0-23-37.75-21.6-37.75-21.6"/><path class="cls-2" d="M.5,90.1S2.43,54.38,56.38,54.38,104,30.77,104,24.74C104-1,61.68.52,61.68.52"/><path class="cls-2" d="M.5,101S2.66,60.92,63.16,60.92s53.42-26.47,53.42-33.23C116.58-1.21,69.11.52,69.11.52"/><path class="cls-2" d="M.5,113.18S2.92,68.25,70.77,68.25,130.68,38.57,130.68,31C130.68-1.41,77.44.52,77.44.52"/><path class="cls-3" d="M250.5,107.44s-7.23,7.27-14.85,5.19-16.27-14.54-6.23-39.46S250.5,51.36,250.5,51.36"/><path class="cls-3" d="M250.5,112.87s-8.78,8.83-18,6.3-19.76-17.65-7.57-47.92,25.6-26.49,25.6-26.49"/><path class="cls-3" d="M250.5,119.46s-10.67,10.73-21.9,7.66-24-21.44-9.19-58.21S250.5,36.75,250.5,36.75"/><path class="cls-3" d="M250.5,127.48s-13,13-26.6,9.3-29.15-26-11.17-70.7S250.5,27,250.5,27"/><path class="cls-3" d="M250.5,137.21s-15.74,15.82-32.31,11.3-35.4-31.64-13.56-85.87S250.5,15.19,250.5,15.19"/><path class="cls-3" d="M250.5,149s-19.12,19.21-39.24,13.72-43-38.42-16.47-104.29S250.5.83,250.5.83"/><path class="cls-4" d="M43.49,228.3a12.58,12.58,0,0,1-1.93,6.32,11.69,11.69,0,0,1-5,4.25,16.88,16.88,0,0,1-7.28,1.5q-6.75,0-10.63-4.4T14.8,223.55v-1.69A20.75,20.75,0,0,1,16.56,213a13.27,13.27,0,0,1,5-5.83,14.13,14.13,0,0,1,7.63-2.06c4.15,0,7.5,1.09,10,3.28a13,13,0,0,1,4.31,9H35.32c-.06-2.09-.59-3.59-1.57-4.5a6.5,6.5,0,0,0-4.52-1.36,4.93,4.93,0,0,0-4.52,2.31c-1,1.53-1.46,4-1.51,7.36v2.42q0,5.49,1.38,7.84t4.74,2.35a6.39,6.39,0,0,0,4.36-1.34,5.72,5.72,0,0,0,1.6-4.26Z"/><path class="cls-4" d="M60.12,227.78H55.65V239.9H47.39V205.64H60.88q6.09,0,9.52,2.71A9.12,9.12,0,0,1,73.84,216a11.09,11.09,0,0,1-1.45,5.93,10.32,10.32,0,0,1-4.53,3.81L75,239.55v.35H66.17Zm-4.47-6.35h5.23a4.69,4.69,0,0,0,3.54-1.24,5.64,5.64,0,0,0,0-6.93A4.63,4.63,0,0,0,60.88,212H55.65Z"/><path class="cls-4" d="M100.08,225.36h-13v8.19h15.34v6.35H78.83V205.64h23.65V212H87.09v7.22h13Z"/><path class="cls-4" d="M125.25,233.5H113.93l-2,6.4h-8.83l12.57-34.26h7.76l12.66,34.26h-8.87Zm-9.34-6.37h7.37l-3.7-11.89Z"/><path class="cls-4" d="M162.69,212H152.4V239.9h-8.25V212h-10.1v-6.38h28.64Z"/><path class="cls-4" d="M175,239.9h-8.23V205.64H175Z"/><path class="cls-4" d="M194,230.58l6.82-24.94h9.22L198.52,239.9h-9l-11.44-34.26h9.16Z"/><path class="cls-4" d="M233.8,225.36h-13v8.19h15.34v6.35h-23.6V205.64H236.2V212H220.81v7.22h13Z"/><text class="cls-5" transform="translate(14.81 191.27)">minimal.</text><rect class="cls-6" x="0.5" y="0.5" width="250" height="250"/></g></g></svg>