<svg xmlns="http://www.w3.org/2000/svg" viewBox="0 0 251 251"><defs><style>.cls-1,.cls-7,.cls-8{fill:none;stroke:#f2f2f2;}.cls-1,.cls-7{stroke-miterlimit:10;}.cls-2{font-size:36px;fill:#e6e6e6;font-family:Roboto-Bold, Roboto;font-weight:700;}.cls-3{letter-spacing:-0.01em;}.cls-4{letter-spacing:-0.06em;}.cls-5{letter-spacing:-0.01em;}.cls-6{letter-spacing:-0.01em;}.cls-7,.cls-8{stroke-width:1.2px;}.cls-8{stroke-linecap:round;stroke-linejoin:round;}</style></defs><title>web-p3Recurso 18</title><g id="Capa_2" data-name="Capa 2"><g id="Capa_1-2" data-name="Capa 1"><rect class="cls-1" x="0.5" y="0.5" width="250" height="250"/><text class="cls-2" transform="translate(31.99 238.36)">CO<tspan class="cls-3" x="48.41" y="0">N</tspan><tspan class="cls-4" x="73.32" y="0">T</tspan><tspan class="cls-5" x="93.48" y="0">A</tspan><tspan class="cls-3" x="117.33" y="0">C</tspan><tspan class="cls-6" x="140.38" y="0">T</tspan><tspan x="162.16" y="0">O</tspan></text><path class="cls-7" d="M53.29,37.92a7.48,7.48,0,0,1-7.48,7.48v5a7.49,7.49,0,0,1,0,15v5a7.49,7.49,0,0,1,0,15v5a7.48,7.48,0,0,1,0,15v5a7.48,7.48,0,0,1,0,15v5a7.48,7.48,0,1,1,0,15v5a7.48,7.48,0,0,1,0,15v5a7.48,7.48,0,0,1,0,15v2.5a11.45,11.45,0,0,1,11.44,11.45h2.51a7.48,7.48,0,1,1,15,0h5a7.48,7.48,0,1,1,15,0h5a7.48,7.48,0,1,1,15,0h5a7.48,7.48,0,1,1,15,0h5a7.48,7.48,0,1,1,15,0h5a7.48,7.48,0,1,1,15,0h5a7.48,7.48,0,1,1,15,0h5a7.48,7.48,0,1,1,15,0h2.49a11.47,11.47,0,0,1,11.45-11.45v-2.5a7.48,7.48,0,1,1,0-15v-5a7.48,7.48,0,1,1,0-15v-5a7.48,7.48,0,1,1,0-15v-5a7.48,7.48,0,1,1,0-15v-5a7.48,7.48,0,1,1,0-15v-5a7.49,7.49,0,1,1,0-15v-5a7.49,7.49,0,1,1,0-15v-5a7.49,7.49,0,1,1,0-15V27.94A11.45,11.45,0,0,1,216.93,16.5h-2.49a7.48,7.48,0,1,1-15,0h-5a7.48,7.48,0,1,1-15,0h-5a7.48,7.48,0,0,1-15,0h-5a7.48,7.48,0,1,1-15,0h-5a7.48,7.48,0,1,1-15,0h-5a7.48,7.48,0,0,1-15,0h-5a7.48,7.48,0,0,1-15,0h-5a7.48,7.48,0,0,1-15,0H57.25A11.44,11.44,0,0,1,45.81,27.94v2.49A7.49,7.49,0,0,1,53.29,37.92Z"/><rect class="cls-7" x="65.77" y="40.72" width="138.39" height="138.39" transform="translate(269.93 219.83) rotate(180)"/><rect class="cls-7" x="70.03" y="36.46" width="138.39" height="138.39" transform="translate(278.45 211.31) rotate(180)"/><line class="cls-8" x1="70.03" y1="174.85" x2="137.09" y2="107.78"/><polyline class="cls-8" points="178.61 149.3 178.61 66.27 95.58 66.27"/><line class="cls-8" x1="70.03" y1="40.72" x2="204.16" y2="174.85"/><path class="cls-7" d="M123.06,136.41a19.56,19.56,0,0,1,14-5.55,19.19,19.19,0,0,1,13.24,4.89,15.34,15.34,0,0,1,5.47,11.85c0,3.7-.74,6.62-2.24,8.78a7,7,0,0,1-6.05,3.23,5.56,5.56,0,0,1-5.31-2.94,7.8,7.8,0,0,1-6.85,3.33,8.31,8.31,0,0,1-6.42-3,10.37,10.37,0,0,1-2.65-7.16,10.24,10.24,0,0,1,2.65-7.1,8.34,8.34,0,0,1,6.42-2.94,7.3,7.3,0,0,1,5.4,2v-1.6h5.55v11.68c0,1.67.51,2.51,1.54,2.51.84,0,1.52-.62,2-1.86a12.9,12.9,0,0,0,.8-5,11,11,0,0,0-3.5-8.59q-3.5-3.13-10.1-3.14a13.93,13.93,0,0,0-14,13.95,13,13,0,0,0,13.46,13.6,18.51,18.51,0,0,0,7.68-1.73l2,4.15a19.29,19.29,0,0,1-9.84,2.41q-8.4,0-13.75-5.16a17.64,17.64,0,0,1-5.35-13.27A17.83,17.83,0,0,1,123.06,136.41Zm10.28,17.05a4,4,0,0,0,3.3,1.42,3.63,3.63,0,0,0,3-1.4,5.57,5.57,0,0,0,1.13-3.61,5.48,5.48,0,0,0-1.11-3.55,3.64,3.64,0,0,0-3-1.38,4.09,4.09,0,0,0-3.3,1.4,5.29,5.29,0,0,0-1.19,3.53A5.43,5.43,0,0,0,133.34,153.46Z"/><path class="cls-7" d="M54.52,191.65A7.48,7.48,0,0,0,48,199.07H45.52a11.44,11.44,0,0,0-11.44-11.44v-2.5a7.49,7.49,0,0,0,0-15v-5a7.49,7.49,0,0,0,0-15v-5a7.49,7.49,0,0,0,0-15v-5a7.49,7.49,0,0,0,0-15v-5a7.49,7.49,0,0,0,0-15v-5a7.49,7.49,0,0,0,0-15v-5a7.49,7.49,0,0,0,0-15v-5a7.49,7.49,0,0,0,0-15V28A11.45,11.45,0,0,0,45.52,16.5H48a7.49,7.49,0,0,0,6.49,7.42"/><path class="cls-7" d="M43.07,191.65a7.48,7.48,0,0,0-6.5,7.42H34.06a11.44,11.44,0,0,0-11.44-11.44v-2.5a7.49,7.49,0,0,0,0-15v-5a7.49,7.49,0,0,0,0-15v-5a7.49,7.49,0,0,0,0-15v-5a7.49,7.49,0,0,0,0-15v-5a7.49,7.49,0,0,0,0-15v-5a7.49,7.49,0,0,0,0-15v-5a7.49,7.49,0,0,0,0-15v-5a7.49,7.49,0,0,0,0-15V28A11.45,11.45,0,0,0,34.06,16.5h2.51a7.49,7.49,0,0,0,6.5,7.42"/></g></g></svg>