<svg xmlns="http://www.w3.org/2000/svg" viewBox="0 0 277.42 495.95"><defs><style>.cls-1{fill:#fff;}.cls-2{fill:#c1272d;fill-rule:evenodd;}.cls-3{fill:#f7931e;}</style></defs><title>mjwhite</title><g id="Capa_2" data-name="Capa 2"><g id="Capa_1-2" data-name="Capa 1"><path class="cls-1" d="M212.07,96,138.71,201.62,65.29,96H0V357.24H76.61v-129l2.63,3.7,46.53,64.62,12.49,17.36.45.62,12.82-18,46.2-64.84h.06l3-4.26v129.8A62.09,62.09,0,0,1,84.73,387.93L38,452.5a138.65,138.65,0,0,0,239.45-95.26V96Z"/><path class="cls-2" d="M169.76,0V64.9a31.07,31.07,0,0,1-31,31.05c-.73,0-1.46,0-2.16-.08-.44,0-.92-.06-1.37-.11l-1.2-.17c-.53-.08-1-.17-1.54-.28s-.95-.2-1.43-.31c0,0-.06,0-.11,0l-1.43-.42c-.48-.14-.92-.3-1.4-.44a32.66,32.66,0,0,1-6.92-3.59c-.53-.36-1.06-.75-1.56-1.15a30.71,30.71,0,0,1-5.77-5.9,26.59,26.59,0,0,1-1.93-2.94,1.89,1.89,0,0,1-.17-.28v0L122.81,64.9l15.68-21.67.22-.31,6.1-8.45L168.19,2.16l0,0h0Z"/><path class="cls-3" d="M138.49,43.23,122.81,64.9,111.72,80.22a30.48,30.48,0,0,1-4.06-15.32V.39L109,2.24l23.27,32.31Z"/></g></g></svg>